STARTFONT 2.1
FONT -DEC-Terminal-Bold-R-Double Wide--25-180-100-100-C-300-iso8859-5
SIZE 18 100 100
FONTBOUNDINGBOX 30 25 0 -5

STARTPROPERTIES 24
FOUNDRY "Monotype"
FAMILY_NAME "VT"
WEIGHT_NAME "Bold"
SLANT "R"
SETWIDTH_NAME "Double Wide"
ADD_STYLE_NAME ""
PIXEL_SIZE 25
POINT_SIZE 180
RESOLUTION_X 100
RESOLUTION_Y 100
SPACING "C"
AVERAGE_WIDTH 300
CHARSET_REGISTRY "iso8859"
CHARSET_ENCODING "5"
FACE_NAME "VT Double Wide Bold ISO Latin Cyrillic"
_DEC_DEVICE_FONTNAMES "PS=vtlatcyr-dblwidebold"
COPYRIGHT "Copyright (c) 1993 Monotype Typography Ltd."
CAP_HEIGHT 14
X_HEIGHT 10
WEIGHT 10
QUAD_WIDTH 30
DEFAULT_CHAR 160
FONT_DESCENT 5
FONT_ASCENT 20
ENDPROPERTIES

CHARS 191

STARTCHAR space
ENCODING 32
SWIDTH 1136 0
DWIDTH 30 0
BBX 30 25 0 -5
BITMAP
00000000
00000000
00000000
00000000
00000000
00000000
00000000
00000000
00000000
00000000
00000000
00000000
00000000
00000000
00000000
00000000
00000000
00000000
00000000
00000000
00000000
00000000
00000000
00000000
00000000
ENDCHAR

STARTCHAR exclam
ENCODING 33
SWIDTH 1136 0
DWIDTH 30 0
BBX 30 25 0 -5
BITMAP
00000000
00000000
00000000
00000000
00000000
001FE000
001FE000
001FE000
001FE000
001FE000
001FE000
001FE000
001FE000
001FE000
00000000
00000000
001FE000
00FFFC00
00FFFC00
001FE000
00000000
00000000
00000000
00000000
00000000
ENDCHAR

STARTCHAR quotedbl
ENCODING 34
SWIDTH 1136 0
DWIDTH 30 0
BBX 30 25 0 -5
BITMAP
00000000
00000000
01F03E00
01F03E00
01F03E00
01F03E00
01F03E00
01F03E00
01F03E00
01F03E00
00000000
00000000
00000000
00000000
00000000
00000000
00000000
00000000
00000000
00000000
00000000
00000000
00000000
00000000
00000000
ENDCHAR

STARTCHAR numbersign
ENCODING 35
SWIDTH 1136 0
DWIDTH 30 0
BBX 30 25 0 -5
BITMAP
00000000
00000000
00000000
00000000
00000000
03F87F80
03F87F80
03F87F80
03F87F80
03F87F80
7FFFFFF8
7FFFFFF8
7FFFFFF8
03F87F80
03F87F80
03F87F80
7FFFFFF8
7FFFFFF8
7FFFFFF8
07F87F80
07F87F80
07F87F80
07F87F80
07F87F80
00000000
ENDCHAR

STARTCHAR dollar
ENCODING 36
SWIDTH 1136 0
DWIDTH 30 0
BBX 30 25 0 -5
BITMAP
00000000
00000000
0003E000
0003E000
0003E000
03FFE1F0
0FFFFFF0
0FFFFFF0
3FE00FF0
3FE003F0
0FFF0000
0FFFE000
01FFFF00
000FFFC0
3F001FF0
3F001FF0
3FE01FF0
3FFFFFF0
3FFFFFC0
3F1FFF00
001F8000
001F8000
001F8000
001F8000
00000000
ENDCHAR

STARTCHAR percent
ENCODING 37
SWIDTH 1136 0
DWIDTH 30 0
BBX 30 25 0 -5
BITMAP
00000000
00000000
00000000
00000000
7FFE0000
FFFF0000
F81F0000
F81F0000
F81F0180
FFFF0780
7FFE3E00
0001E000
000FC000
003C0000
03E1FFF8
0F03FFFC
0C03E07C
0003E07C
0003E07C
0003FFFC
0001FFF8
00000000
00000000
00000000
00000000
ENDCHAR

STARTCHAR ampersand
ENCODING 38
SWIDTH 1136 0
DWIDTH 30 0
BBX 30 25 0 -5
BITMAP
00000000
00000000
00000000
00000000
00000000
003FCF80
01FFFF80
03FFFF80
03F81F80
03FC0000
01FF0000
00FF8000
03FFC000
0FCFEF80
3FC3FF80
3FC0FF00
3FE07F80
0FFFFFF0
0FFFFFF0
03FFF3F0
00000000
00000000
00000000
00000000
00000000
ENDCHAR

STARTCHAR quoteright
ENCODING 39
SWIDTH 1136 0
DWIDTH 30 0
BBX 30 25 0 -5
BITMAP
00000000
00000000
0007FC00
000FF000
001FE000
003F8000
00FF0000
01F80000
03F00000
00000000
00000000
00000000
00000000
00000000
00000000
00000000
00000000
00000000
00000000
00000000
00000000
00000000
00000000
00000000
00000000
ENDCHAR

STARTCHAR parenleft
ENCODING 40
SWIDTH 1136 0
DWIDTH 30 0
BBX 30 25 0 -5
BITMAP
00000000
00000000
00000000
00003E00
0000FE00
0007F000
000FC000
001FC000
003F8000
00FF8000
00FF0000
01FF0000
01FF0000
01FF0000
01FF0000
01FF0000
01FF0000
01FF0000
00FF8000
00FF8000
003FC000
001FC000
000FF000
0003FE00
00003E00
ENDCHAR

STARTCHAR parenright
ENCODING 41
SWIDTH 1136 0
DWIDTH 30 0
BBX 30 25 0 -5
BITMAP
00000000
00000000
00000000
00F80000
00FF8000
001FE000
0007F000
0007F800
0003FE00
0003FE00
0001FF00
0001FF00
0001FF00
0001FF00
0001FF00
0001FF00
0001FF00
0001FE00
0003FE00
0003F800
0007F000
0007E000
001FC000
00FE0000
00F80000
ENDCHAR

STARTCHAR asterisk
ENCODING 42
SWIDTH 1136 0
DWIDTH 30 0
BBX 30 25 0 -5
BITMAP
00000000
00000000
00000000
00000000
00000000
00000000
0007E000
0307E0C0
0787E1E0
0FE7E7F0
07FFFFF0
03FFFFE0
01FFFFC0
00FFFF80
00FFFF80
01FE7F80
03FC3FC0
01F81F80
00F00F00
00600600
00000000
00000000
00000000
00000000
00000000
ENDCHAR

STARTCHAR plus
ENCODING 43
SWIDTH 1136 0
DWIDTH 30 0
BBX 30 25 0 -5
BITMAP
00000000
00000000
00000000
00000000
00000000
00000000
00000000
001FE000
001FE000
001FE000
001FE000
001FE000
3FFFFFF0
3FFFFFF0
3FFFFFF0
001FE000
001FE000
001FE000
001FE000
001FE000
00000000
00000000
00000000
00000000
00000000
ENDCHAR

STARTCHAR comma
ENCODING 44
SWIDTH 1136 0
DWIDTH 30 0
BBX 30 25 0 -5
BITMAP
00000000
00000000
00000000
00000000
00000000
00000000
00000000
00000000
00000000
00000000
00000000
00000000
00000000
00000000
00000000
00000000
000FFE00
000FFE00
000FF800
001FF000
001FE000
007FC000
007F8000
00FE0000
00000000
ENDCHAR

STARTCHAR minus
ENCODING 45
SWIDTH 1136 0
DWIDTH 30 0
BBX 30 25 0 -5
BITMAP
00000000
00000000
00000000
00000000
00000000
00000000
00000000
00000000
00000000
00000000
00000000
00000000
3FFFFFF0
3FFFFFF0
3FFFFFF0
00000000
00000000
00000000
00000000
00000000
00000000
00000000
00000000
00000000
00000000
ENDCHAR

STARTCHAR period
ENCODING 46
SWIDTH 1136 0
DWIDTH 30 0
BBX 30 25 0 -5
BITMAP
00000000
00000000
00000000
00000000
00000000
00000000
00000000
00000000
00000000
00000000
00000000
00000000
00000000
00000000
00000000
000FC000
003FF000
003FF000
003FF000
000FC000
00000000
00000000
00000000
00000000
00000000
ENDCHAR

STARTCHAR slash
ENCODING 47
SWIDTH 1136 0
DWIDTH 30 0
BBX 30 25 0 -5
BITMAP
00000000
00000000
00000000
000000FC
000001F8
000003F0
00000FC0
00001F80
00003F00
00007E00
0000FC00
0003F000
0007E000
000FC000
001F8000
003F0000
00FC0000
01F80000
03F00000
07E00000
0FC00000
3F000000
7E000000
00000000
00000000
ENDCHAR

STARTCHAR zero
ENCODING 48
SWIDTH 1136 0
DWIDTH 30 0
BBX 30 25 0 -5
BITMAP
00000000
00000000
00000000
00000000
00000000
007FFE00
01FFFF80
07FFFFE0
07F81FE0
1FF00FF8
1FF00FF8
1FF00FF8
1FF00FF8
1FF00FF8
1FF00FF8
1FF00FF8
07F81FE0
03FFFFC0
01FFFF80
001FF800
00000000
00000000
00000000
00000000
00000000
ENDCHAR

STARTCHAR one
ENCODING 49
SWIDTH 1136 0
DWIDTH 30 0
BBX 30 25 0 -5
BITMAP
00000000
00000000
00000000
00000000
00000000
0007FC00
007FFC00
01FFFC00
01F3FC00
0003FC00
0003FC00
0003FC00
0003FC00
0003FC00
0003FC00
0003FC00
0003FC00
01FFFFFC
01FFFFFC
01FFFFFC
00000000
00000000
00000000
00000000
00000000
ENDCHAR

STARTCHAR two
ENCODING 50
SWIDTH 1136 0
DWIDTH 30 0
BBX 30 25 0 -5
BITMAP
00000000
00000000
00000000
00000000
00000000
01FFFF00
3FFFFFC0
3FFFFFC0
00001FF0
00001FF0
00003FC0
00007FC0
0003FF00
000FFC00
003FE000
01FF83F0
07F803F0
3FFFFFF0
3FFFFFF0
3FFFFFF0
00000000
00000000
00000000
00000000
00000000
ENDCHAR

STARTCHAR three
ENCODING 51
SWIDTH 1136 0
DWIDTH 30 0
BBX 30 25 0 -5
BITMAP
00000000
00000000
00000000
00000000
00000000
03FFFF00
3FFFFFC0
3FFFFFF0
3F001FF0
3F001FC0
00001FC0
001FFF00
001FFFC0
001FFFF0
00001FF0
3F001FF0
3F001FF0
3FFFFFF0
3FFFFFC0
03FFFF00
00000000
00000000
00000000
00000000
00000000
ENDCHAR

STARTCHAR four
ENCODING 52
SWIDTH 1136 0
DWIDTH 30 0
BBX 30 25 0 -5
BITMAP
00000000
00000000
00000000
00000000
00000000
001FFF00
003FFF00
00FFFF00
01F8FF00
03F0FF00
07E0FF00
0FC0FF00
3F00FF00
7FFFFFF0
7FFFFFF0
7FFFFFF0
0000FF00
003FFFF0
003FFFF0
003FFFF0
00000000
00000000
00000000
00000000
00000000
ENDCHAR

STARTCHAR five
ENCODING 53
SWIDTH 1136 0
DWIDTH 30 0
BBX 30 25 0 -5
BITMAP
00000000
00000000
00000000
00000000
00000000
3FFFFFF0
3FFFFFF0
3FFFFFF0
3FC00000
3FC00000
3FFFFF00
3FFFFFC0
3FFFFFF0
3C001FF0
00001FF0
00001FF0
3E001FF0
3FFFFFF0
3FFFFFC0
03FFFF00
00000000
00000000
00000000
00000000
00000000
ENDCHAR

STARTCHAR six
ENCODING 54
SWIDTH 1136 0
DWIDTH 30 0
BBX 30 25 0 -5
BITMAP
00000000
00000000
00000000
00000000
00000000
003FFFC0
03FFFFC0
07FFFFC0
0FF00000
0FE00000
3FE3FF00
3FEFFFC0
3FFFFFF0
3FF01FF0
3FE00FF0
3FE00FF0
0FF01FF0
0FFFFFF0
07FFFFC0
00FFFF00
00000000
00000000
00000000
00000000
00000000
ENDCHAR

STARTCHAR seven
ENCODING 55
SWIDTH 1136 0
DWIDTH 30 0
BBX 30 25 0 -5
BITMAP
00000000
00000000
00000000
00000000
00000000
3FFFFFF0
3FFFFFF0
3FFFFFF0
3FC01FF0
3FC03FF0
3FC07FC0
0000FF80
0003FF00
0007FE00
000FFC00
001FF000
003FE000
00FFC000
01FF8000
01FF8000
00000000
00000000
00000000
00000000
00000000
ENDCHAR

STARTCHAR eight
ENCODING 56
SWIDTH 1136 0
DWIDTH 30 0
BBX 30 25 0 -5
BITMAP
00000000
00000000
00000000
00000000
00000000
03FFFF00
07FFFF80
0FFFFFC0
0FE01FC0
0FE01FC0
07E01F80
03FFFF00
0FFFFFC0
3FE01FF0
3FE01FF0
3FE01FF0
3FE01FF0
0FFFFFC0
0FFFFFC0
03FFFF00
00000000
00000000
00000000
00000000
00000000
ENDCHAR

STARTCHAR nine
ENCODING 57
SWIDTH 1136 0
DWIDTH 30 0
BBX 30 25 0 -5
BITMAP
00000000
00000000
00000000
00000000
00000000
03FFFF00
0FFFFFC0
3FFFFFC0
3FE03FF0
3FC01FF0
3FC01FF0
3FE03FF0
1FFFFFF0
07FFFFF0
01FF9FF0
00001FC0
00003FC0
0FFFFF80
0FFFFF00
0FFFF000
00000000
00000000
00000000
00000000
00000000
ENDCHAR

STARTCHAR colon
ENCODING 58
SWIDTH 1136 0
DWIDTH 30 0
BBX 30 25 0 -5
BITMAP
00000000
00000000
00000000
00000000
00000000
00000000
00000000
00000000
000FC000
003FF000
003FF000
003FF000
000FC000
00000000
00000000
000FC000
003FF000
003FF000
003FF000
000FC000
00000000
00000000
00000000
00000000
00000000
ENDCHAR

STARTCHAR semicolon
ENCODING 59
SWIDTH 1136 0
DWIDTH 30 0
BBX 30 25 0 -5
BITMAP
00000000
00000000
00000000
00000000
00000000
00000000
00000000
00000000
0007F000
001FFE00
001FFE00
001FFE00
0007F000
00000000
00000000
00000000
001FFC00
001FFC00
001FF000
003FE000
003FC000
00FF8000
00FF0000
01FC0000
00000000
ENDCHAR

STARTCHAR less
ENCODING 60
SWIDTH 1136 0
DWIDTH 30 0
BBX 30 25 0 -5
BITMAP
00000000
00000000
00000000
00000000
00000000
00000000
000003F0
00001FF0
0000FFF0
001FFF00
03FFF000
3FFF8000
3FF80000
3FFF8000
03FFF000
001FFF00
0000FFF0
00001FF0
000003F0
00000000
00000000
00000000
00000000
00000000
00000000
ENDCHAR

STARTCHAR equal
ENCODING 61
SWIDTH 1136 0
DWIDTH 30 0
BBX 30 25 0 -5
BITMAP
00000000
00000000
00000000
00000000
00000000
00000000
00000000
00000000
00000000
3FFFFFF0
3FFFFFF0
3FFFFFF0
00000000
00000000
3FFFFFF0
3FFFFFF0
3FFFFFF0
00000000
00000000
00000000
00000000
00000000
00000000
00000000
00000000
ENDCHAR

STARTCHAR greater
ENCODING 62
SWIDTH 1136 0
DWIDTH 30 0
BBX 30 25 0 -5
BITMAP
00000000
00000000
00000000
00000000
00000000
00000000
3F000000
3FE00000
3FFC0000
03FFE000
003FFF00
0007FFF0
00007FF0
0007FFF0
003FFE00
03FFC000
3FF80000
3FC00000
3E000000
00000000
00000000
00000000
00000000
00000000
00000000
ENDCHAR

STARTCHAR question
ENCODING 63
SWIDTH 1136 0
DWIDTH 30 0
BBX 30 25 0 -5
BITMAP
00000000
00000000
00000000
00000000
00000000
00FFFF00
03FFFFC0
07FC3FE0
07F81FE0
00001FE0
0007FF80
001FFE00
001FE000
001FE000
00000000
00000000
001FE000
007FF800
007FF800
001FE000
00000000
00000000
00000000
00000000
00000000
ENDCHAR

STARTCHAR at
ENCODING 64
SWIDTH 1136 0
DWIDTH 30 0
BBX 30 25 0 -5
BITMAP
00000000
00000000
00000000
01FFFE00
03FFFF00
0FFFFF80
3FC01FC0
3F000FC0
7F000FC0
7E0FFFC0
7E1FFFC0
7E3FFFC0
7E3F0FC0
7E3F0FC0
7E3FFFC0
7E1FF3F8
7E0FF1F8
7F000000
7F000000
3FE00000
0FFFFF80
03FFFF80
01FFFF80
00000000
00000000
ENDCHAR

STARTCHAR A
ENCODING 65
SWIDTH 1136 0
DWIDTH 30 0
BBX 30 25 0 -5
BITMAP
00000000
00000000
00000000
00000000
00000000
001FF000
003FFC00
003FFC00
00FFFE00
00FCFE00
01F8FE00
01F87F00
03F07F00
03FFFF80
07FFFF80
07C03FC0
0FC01FC0
7FF07FF8
7FF07FF8
7FF07FF8
00000000
00000000
00000000
00000000
00000000
ENDCHAR

STARTCHAR B
ENCODING 66
SWIDTH 1136 0
DWIDTH 30 0
BBX 30 25 0 -5
BITMAP
00000000
00000000
00000000
00000000
00000000
7FFFFF00
7FFFFFC0
7FFFFFC0
0FF03FC0
0FF03FC0
0FF03F00
0FFFFF00
0FFFFFC0
0FF00FF8
0FF00FF8
0FF00FF8
0FF00FF8
7FFFFFF0
7FFFFFF0
7FFFFF80
00000000
00000000
00000000
00000000
00000000
ENDCHAR

STARTCHAR C
ENCODING 67
SWIDTH 1136 0
DWIDTH 30 0
BBX 30 25 0 -5
BITMAP
00000000
00000000
00000000
00000000
00000000
00FFF0F8
07FFFFF8
0FFFFFF8
3FE00FF8
7FC001F8
7FC001F8
7FC00000
7FC00000
7FC00000
7FC00000
7FE00000
3FF001F8
0FFFFFF8
07FFFFF8
00FFFF00
00000000
00000000
00000000
00000000
00000000
ENDCHAR

STARTCHAR D
ENCODING 68
SWIDTH 1136 0
DWIDTH 30 0
BBX 30 25 0 -5
BITMAP
00000000
00000000
00000000
00000000
00000000
7FFFFF00
7FFFFFC0
7FFFFFC0
0FF01FF0
0FF00FF8
0FF00FF8
0FF00FF8
0FF00FF8
0FF00FF8
0FF00FF8
0FF00FF8
0FF01FF0
7FFFFFC0
7FFFFFC0
7FFFFF00
00000000
00000000
00000000
00000000
00000000
ENDCHAR

STARTCHAR E
ENCODING 69
SWIDTH 1136 0
DWIDTH 30 0
BBX 30 25 0 -5
BITMAP
00000000
00000000
00000000
00000000
00000000
3FFFFFF0
3FFFFFF0
3FFFFFF0
07F801F0
07F801F0
07F8F000
07FFF000
07FFF000
07F8F000
07F801F0
07F801F0
07F801F0
3FFFFFF0
3FFFFFF0
3FFFFFF0
00000000
00000000
00000000
00000000
00000000
ENDCHAR

STARTCHAR F
ENCODING 70
SWIDTH 1136 0
DWIDTH 30 0
BBX 30 25 0 -5
BITMAP
00000000
00000000
00000000
00000000
00000000
3FFFFFF0
3FFFFFF0
3FFFFFF0
07F80000
07F80000
07F80000
07F87C00
07FFFC00
07FFFC00
07F87C00
07F80000
07F80000
3FFF8000
3FFF8000
3FFF8000
00000000
00000000
00000000
00000000
00000000
ENDCHAR

STARTCHAR G
ENCODING 71
SWIDTH 1136 0
DWIDTH 30 0
BBX 30 25 0 -5
BITMAP
00000000
00000000
00000000
00000000
00000000
00FFF0F8
07FFFFF8
0FFFFFF8
3FE00000
7FC00000
7FC00000
7FC00000
7FC0FFF8
7FC0FFF8
7FC00FF8
7FC00FF8
3FE00FF8
0FFFFFF8
07FFFFF8
00FFFF80
00000000
00000000
00000000
00000000
00000000
ENDCHAR

STARTCHAR H
ENCODING 72
SWIDTH 1136 0
DWIDTH 30 0
BBX 30 25 0 -5
BITMAP
00000000
00000000
00000000
00000000
00000000
7FF03FF8
7FF03FF8
7FF03FF8
0FF03FC0
0FF03FC0
0FF03FC0
0FFFFFC0
0FFFFFC0
0FF03FC0
0FF03FC0
0FF03FC0
0FF03FC0
7FF03FF8
7FF03FF8
7FF03FF8
00000000
00000000
00000000
00000000
00000000
ENDCHAR

STARTCHAR I
ENCODING 73
SWIDTH 1136 0
DWIDTH 30 0
BBX 30 25 0 -5
BITMAP
00000000
00000000
00000000
00000000
00000000
3FFFFFF0
3FFFFFF0
3FFFFFF0
001FE000
001FE000
001FE000
001FE000
001FE000
001FE000
001FE000
001FE000
001FE000
3FFFFFF0
3FFFFFF0
3FFFFFF0
00000000
00000000
00000000
00000000
00000000
ENDCHAR

STARTCHAR J
ENCODING 74
SWIDTH 1136 0
DWIDTH 30 0
BBX 30 25 0 -5
BITMAP
00000000
00000000
00000000
00000000
00000000
003FFFF8
003FFFF8
003FFFF8
0000FF00
0000FF00
0000FF00
0000FF00
0000FF00
7E00FF00
7E00FF00
7E00FF00
7F00FF00
7FFFFE00
7FFFFE00
0FFFF000
00000000
00000000
00000000
00000000
00000000
ENDCHAR

STARTCHAR K
ENCODING 75
SWIDTH 1136 0
DWIDTH 30 0
BBX 30 25 0 -5
BITMAP
00000000
00000000
00000000
00000000
00000000
7FF03FF0
7FF03FF0
7FF03FF0
0FF07E00
0FF0F000
0FF3E000
0FF7C000
0FFFE000
0FFFF000
0FF3FC00
0FF0FE00
0FF07F00
7FF03FF8
7FF03FF8
7FF03FF8
00000000
00000000
00000000
00000000
00000000
ENDCHAR

STARTCHAR L
ENCODING 76
SWIDTH 1136 0
DWIDTH 30 0
BBX 30 25 0 -5
BITMAP
00000000
00000000
00000000
00000000
00000000
3FFFC000
3FFFC000
3FFFC000
03FC0000
03FC0000
03FC0000
03FC0000
03FC0000
03FC03F0
03FC03F0
03FC03F0
03FC03F0
3FFFFFF0
3FFFFFF0
3FFFFFF0
00000000
00000000
00000000
00000000
00000000
ENDCHAR

STARTCHAR M
ENCODING 77
SWIDTH 1136 0
DWIDTH 30 0
BBX 30 25 0 -5
BITMAP
00000000
00000000
00000000
00000000
00000000
7FC003F8
7FE00FF8
7FE00FF8
0FF01FC0
0FF83FC0
0FFC7FC0
0FFFFFC0
0FDFEFC0
0FCFCFC0
0FE79FC0
0FE79FC0
0FE01FC0
7FE01FF8
7FE01FF8
7FE01FF8
00000000
00000000
00000000
00000000
00000000
ENDCHAR

STARTCHAR N
ENCODING 78
SWIDTH 1136 0
DWIDTH 30 0
BBX 30 25 0 -5
BITMAP
00000000
00000000
00000000
00000000
00000000
7FF03FF8
7FF03FF8
7FF83FF8
0FFC3FC0
0FFF3FC0
0FFFBFC0
0FF7BFC0
0FF3FFC0
0FF0FFC0
0FF07FC0
0FF07FC0
0FF03FC0
7FF03FC0
7FF03FC0
7FF03FC0
00000000
00000000
00000000
00000000
00000000
ENDCHAR

STARTCHAR O
ENCODING 79
SWIDTH 1136 0
DWIDTH 30 0
BBX 30 25 0 -5
BITMAP
00000000
00000000
00000000
00000000
00000000
00FFFC00
07FFFF80
0FF87FC0
3FE01FF0
3FC00FF0
7FC00FF8
7F0003F8
7F0003F8
7F0003F8
7FC00FF8
3FC00FF0
3FE01FF0
1FF87FC0
0FFFFF00
01FFF800
00000000
00000000
00000000
00000000
00000000
ENDCHAR

STARTCHAR P
ENCODING 80
SWIDTH 1136 0
DWIDTH 30 0
BBX 30 25 0 -5
BITMAP
00000000
00000000
00000000
00000000
00000000
3FFFFF80
3FFFFFC0
3FFFFFF0
03FC1FF0
03FC1FF0
03FC1FF0
03FC1FF0
03FFFFC0
03FFFF80
03FC0000
03FC0000
03FC0000
3FFFC000
3FFFC000
3FFFC000
00000000
00000000
00000000
00000000
00000000
ENDCHAR

STARTCHAR Q
ENCODING 81
SWIDTH 1136 0
DWIDTH 30 0
BBX 30 25 0 -5
BITMAP
00000000
00000000
00000000
00000000
00000000
00FFFC00
07FFFF80
0FFFFFC0
3FE01FF0
3FC00FF0
7FC00FF8
7FC00FF8
7FC00FF8
7FC00FF8
7FC00FF8
3FC00FF0
3FE01FE0
0FFFFFC0
07FFFF80
00FFFC00
001C0000
001C00F8
003FFFF8
01FFFFF8
01F0FF80
ENDCHAR

STARTCHAR R
ENCODING 82
SWIDTH 1136 0
DWIDTH 30 0
BBX 30 25 0 -5
BITMAP
00000000
00000000
00000000
00000000
00000000
7FFFFF00
7FFFFFC0
7FFFFFC0
0FF03FC0
0FF03FC0
0FF03FC0
0FFFFF80
0FFFFC00
0FF3FE00
0FF0FF00
0FF07F00
0FF07F80
7FF03FF8
7FF03FF8
7FF01FF8
00000000
00000000
00000000
00000000
00000000
ENDCHAR

STARTCHAR S
ENCODING 83
SWIDTH 1136 0
DWIDTH 30 0
BBX 30 25 0 -5
BITMAP
00000000
00000000
00000000
00000000
00000000
01FFCFC0
07FFFFC0
07FFFFC0
0FF00000
0FF00000
07FF0000
03FFF000
00FFFF00
0003FFC0
07E03FC0
07E03FC0
07F03FC0
07FFFF80
07FFFF80
07CFFE00
00000000
00000000
00000000
00000000
00000000
ENDCHAR

STARTCHAR T
ENCODING 84
SWIDTH 1136 0
DWIDTH 30 0
BBX 30 25 0 -5
BITMAP
00000000
00000000
00000000
00000000
00000000
7FFFFFF8
7FFFFFF8
7FFFFFF8
7E1FE1F8
7E1FE1F8
7E1FE1F8
7E1FE1F8
001FE000
001FE000
001FE000
001FE000
001FE000
01FFFE00
01FFFE00
01FFFE00
00000000
00000000
00000000
00000000
00000000
ENDCHAR

STARTCHAR U
ENCODING 85
SWIDTH 1136 0
DWIDTH 30 0
BBX 30 25 0 -5
BITMAP
00000000
00000000
00000000
00000000
00000000
7FF03FF8
7FF03FF8
7FF03FF8
0FF03FC0
0FF03FC0
0FF03FC0
0FF03FC0
0FF03FC0
0FF03FC0
0FF03FC0
0FF03FC0
0FF03FC0
07FFFF80
07FFFF80
01FFFE00
00000000
00000000
00000000
00000000
00000000
ENDCHAR

STARTCHAR V
ENCODING 86
SWIDTH 1136 0
DWIDTH 30 0
BBX 30 25 0 -5
BITMAP
00000000
00000000
00000000
00000000
00000000
7FE00FF8
7FE00FF8
7FE00FF8
0FF01FC0
0FF01FC0
07F03F80
07F83F00
03F87F00
03FC7E00
01FCFE00
01FFFC00
00FFF000
00FFF000
003FE000
003FE000
00000000
00000000
00000000
00000000
00000000
ENDCHAR

STARTCHAR W
ENCODING 87
SWIDTH 1136 0
DWIDTH 30 0
BBX 30 25 0 -5
BITMAP
00000000
00000000
00000000
00000000
00000000
7FF03FF8
7FF03FF8
7FF03FF8
0FC003C0
0FC783C0
0FC783C0
0FCFCF80
07CFCF80
07DFEF80
07F8FF00
07F8FF00
07F8FF00
03F07E00
03F07E00
03F07E00
00000000
00000000
00000000
00000000
00000000
ENDCHAR

STARTCHAR X
ENCODING 88
SWIDTH 1136 0
DWIDTH 30 0
BBX 30 25 0 -5
BITMAP
00000000
00000000
00000000
00000000
00000000
7FE00FF0
7FF01FF0
7FF83FF0
07FC7F00
03FFFE00
00FFFC00
003FF000
001FF000
003FFC00
00FFFE00
03F8FF00
07F07F80
7FE03FF8
7FE03FF8
7FE01FF8
00000000
00000000
00000000
00000000
00000000
ENDCHAR

STARTCHAR Y
ENCODING 89
SWIDTH 1136 0
DWIDTH 30 0
BBX 30 25 0 -5
BITMAP
00000000
00000000
00000000
00000000
00000000
7FF01FF8
7FF01FF8
7FF83FF8
07F83F80
03FC7F00
01FFFE00
00FFFC00
003FF000
001FE000
001FE000
001FE000
001FE000
03FFFF00
03FFFF00
03FFFF00
00000000
00000000
00000000
00000000
00000000
ENDCHAR

STARTCHAR Z
ENCODING 90
SWIDTH 1136 0
DWIDTH 30 0
BBX 30 25 0 -5
BITMAP
00000000
00000000
00000000
00000000
00000000
0FFFFF80
0FFFFF80
0FFFFF00
0FC3FE00
0FC7FC00
000FF000
001FE000
003FC000
00FF8000
01FF0FC0
03FC0FC0
07F80FC0
0FFFFFC0
0FFFFFC0
0FFFFFC0
00000000
00000000
00000000
00000000
00000000
ENDCHAR

STARTCHAR bracketleft
ENCODING 91
SWIDTH 1136 0
DWIDTH 30 0
BBX 30 25 0 -5
BITMAP
00000000
00000000
00FFFE00
00FFFE00
00FFFE00
00FF8000
00FF8000
00FF8000
00FF8000
00FF8000
00FF8000
00FF8000
00FF8000
00FF8000
00FF8000
00FF8000
00FF8000
00FF8000
00FF8000
00FF8000
00FFFC00
00FFFC00
00FFFC00
00000000
00000000
ENDCHAR

STARTCHAR backslash
ENCODING 92
SWIDTH 1136 0
DWIDTH 30 0
BBX 30 25 0 -5
BITMAP
00000000
00000000
00000000
7E000000
3F000000
0FC00000
07E00000
03F00000
01F80000
00FC0000
003F0000
001F8000
000FC000
0007E000
0003F000
0000FC00
00007E00
00003F00
00001F80
00000FC0
000003F0
000001F8
000000FC
00000000
00000000
ENDCHAR

STARTCHAR bracketright
ENCODING 93
SWIDTH 1136 0
DWIDTH 30 0
BBX 30 25 0 -5
BITMAP
00000000
00000000
00FFFE00
00FFFE00
00FFFE00
0003FE00
0003FE00
0003FE00
0003FE00
0003FE00
0003FE00
0003FE00
0003FE00
0003FE00
0003FE00
0003FE00
0003FE00
0003FE00
0003FE00
0003FE00
00FFFE00
00FFFE00
00FFFE00
00000000
00000000
ENDCHAR

STARTCHAR asciicircum
ENCODING 94
SWIDTH 1136 0
DWIDTH 30 0
BBX 30 25 0 -5
BITMAP
00000000
00000000
00000000
00000000
00000000
00000000
00000000
00000000
00078000
000FC000
003FF000
00FCFC00
03F87F00
0FE01FC0
3FC00FF0
00000000
00000000
00000000
00000000
00000000
00000000
00000000
00000000
00000000
00000000
ENDCHAR

STARTCHAR underscore
ENCODING 95
SWIDTH 1136 0
DWIDTH 30 0
BBX 30 25 0 -5
BITMAP
00000000
00000000
00000000
00000000
00000000
00000000
00000000
00000000
00000000
00000000
00000000
00000000
00000000
00000000
00000000
00000000
00000000
00000000
FFFFFFFC
FFFFFFFC
00000000
00000000
00000000
00000000
00000000
ENDCHAR

STARTCHAR quoteleft
ENCODING 96
SWIDTH 1136 0
DWIDTH 30 0
BBX 30 25 0 -5
BITMAP
00000000
00000000
003C0000
003F0000
003F8000
001FC000
0007E000
0003F000
00007C00
00000000
00000000
00000000
00000000
00000000
00000000
00000000
00000000
00000000
00000000
00000000
00000000
00000000
00000000
00000000
00000000
ENDCHAR

STARTCHAR a
ENCODING 97
SWIDTH 1136 0
DWIDTH 30 0
BBX 30 25 0 -5
BITMAP
00000000
00000000
00000000
00000000
00000000
00000000
00000000
00000000
07FFFF00
07FFFF80
00003FC0
00003FC0
07FFFFC0
3FFFFFC0
7FC03FC0
7FC03FC0
7FC07FC0
7FFFFFC0
3FFFFFF8
0FFF3FF8
00000000
00000000
00000000
00000000
00000000
ENDCHAR

STARTCHAR b
ENCODING 98
SWIDTH 1136 0
DWIDTH 30 0
BBX 30 25 0 -5
BITMAP
00000000
00000000
00000000
7FF00000
7FF00000
0FF00000
0FF00000
0FF00000
0FF3FF80
0FFFFFF0
0FFC3FF0
0FF80FF8
0FF00FF8
0FF00FF8
0FF00FF8
0FF00FF8
0FF83FF0
0FFFFFF0
7FFFFFC0
7FF3FF00
00000000
00000000
00000000
00000000
00000000
ENDCHAR

STARTCHAR c
ENCODING 99
SWIDTH 1136 0
DWIDTH 30 0
BBX 30 25 0 -5
BITMAP
00000000
00000000
00000000
00000000
00000000
00000000
00000000
00000000
01FFF0F8
07FFFFF8
0FF81FF8
0FF00FF8
3FE001F8
3FE00000
3FE00000
3FF00000
3FF00000
0FFC03F0
07FFFFF0
01FFFF80
00000000
00000000
00000000
00000000
00000000
ENDCHAR

STARTCHAR d
ENCODING 100
SWIDTH 1136 0
DWIDTH 30 0
BBX 30 25 0 -5
BITMAP
00000000
00000000
00000000
0007FFE0
0007FFE0
00001FE0
00001FE0
00001FE0
01FF9FE0
07FFFFE0
1FF83FE0
1FF03FE0
3FE01FE0
3FE01FE0
3FE01FE0
3FE01FE0
1FF03FE0
1FFC7FE0
07FFFFFC
01FF9FFC
00000000
00000000
00000000
00000000
00000000
ENDCHAR

STARTCHAR e
ENCODING 101
SWIDTH 1136 0
DWIDTH 30 0
BBX 30 25 0 -5
BITMAP
00000000
00000000
00000000
00000000
00000000
00000000
00000000
00000000
03FFFF00
0FFFFFC0
3FF01FF0
3FE00FF0
7FE00FF0
7FFFFFF0
7FFFFFC0
7FE00000
3FE00000
3FF00000
0FFFFFF0
03FFFF80
00000000
00000000
00000000
00000000
00000000
ENDCHAR

STARTCHAR f
ENCODING 102
SWIDTH 1136 0
DWIDTH 30 0
BBX 30 25 0 -5
BITMAP
00000000
00000000
00000000
00000000
001FFFF0
003FFFF0
00FF8000
00FF8000
0FFFFF80
0FFFFF80
00FF8000
00FF8000
00FF8000
00FF8000
00FF8000
00FF8000
00FF8000
00FF8000
3FFFFF80
3FFFFF80
00000000
00000000
00000000
00000000
00000000
ENDCHAR

STARTCHAR g
ENCODING 103
SWIDTH 1136 0
DWIDTH 30 0
BBX 30 25 0 -5
BITMAP
00000000
00000000
00000000
00000000
00000000
00000000
00000000
00000000
01FF3FF8
0FFFFFF8
3FE07FC0
7FE07FC0
7FC03FC0
7FC03FC0
7FC03FC0
7FC03FC0
7FE07FC0
3FFFFFC0
0FFFFFC0
03FF3FC0
00003FC0
00003FC0
00007F80
1FFFFE00
1FFFF800
ENDCHAR

STARTCHAR h
ENCODING 104
SWIDTH 1136 0
DWIDTH 30 0
BBX 30 25 0 -5
BITMAP
00000000
00000000
00000000
7FF00000
7FF00000
0FF00000
FFFFF000
0FF00000
0FF3FF00
0FFFFF80
0FFC3FC0
0FF03FC0
0FF03FC0
0FF03FC0
0FF03FC0
0FF03FC0
0FF03FC0
0FF03FC0
7FF03FF8
7FF03FF8
00000000
00000000
00000000
00000000
00000000
ENDCHAR

STARTCHAR i
ENCODING 105
SWIDTH 1136 0
DWIDTH 30 0
BBX 30 25 0 -5
BITMAP
00000000
00000000
001FE000
001FE000
001FE000
001FE000
00000000
00000000
03FFE000
03FFE000
001FE000
001FE000
001FE000
001FE000
001FE000
001FE000
001FE000
001FE000
07FFFF80
07FFFF80
00000000
00000000
00000000
00000000
00000000
ENDCHAR

STARTCHAR j
ENCODING 106
SWIDTH 1136 0
DWIDTH 30 0
BBX 30 25 0 -5
BITMAP
00000000
00000000
0007FC00
0007FC00
0007FC00
0007FC00
00000000
00000000
01FFFC00
01FFFC00
0007FC00
0007FC00
0007FC00
0007FC00
0007FC00
0007FC00
0007FC00
0007FC00
0007FC00
0007FC00
0007FC00
0007FC00
000FF000
3FFFE000
3FFF8000
ENDCHAR

STARTCHAR k
ENCODING 107
SWIDTH 1136 0
DWIDTH 30 0
BBX 30 25 0 -5
BITMAP
00000000
00000000
00000000
7FF00000
7FF00000
0FF00000
0FF00000
0FF00000
0FF03FF0
0FF07FF0
0FF0FC00
0FF3F000
0FF7E000
0FFFE000
0FFFF000
0FF3FC00
0FF0FF00
0FF07F80
7FF03FF8
7FF01FF8
00000000
00000000
00000000
00000000
00000000
ENDCHAR

STARTCHAR l
ENCODING 108
SWIDTH 1136 0
DWIDTH 30 0
BBX 30 25 0 -5
BITMAP
00000000
00000000
00000000
03FFE000
03FFE000
001FE000
001FE000
001FE000
001FE000
001FE000
001FE000
001FE000
001FE000
001FE000
001FE000
001FE000
001FE000
001FE000
07FFFF80
07FFFF80
00000000
00000000
00000000
00000000
00000000
ENDCHAR

STARTCHAR m
ENCODING 109
SWIDTH 1136 0
DWIDTH 30 0
BBX 30 25 0 -5
BITMAP
00000000
00000000
00000000
00000000
00000000
00000000
00000000
00000000
FE3F9FF0
7FFFFFF8
7FCFE3F8
7FCFE3F8
7FCFE3F8
7FCFE3F8
7FCFE3F8
7FCFE3F8
7FCFE3F8
7FCFE3F8
7FCFE3F8
FFCFE3FC
00000000
00000000
00000000
00000000
00000000
ENDCHAR

STARTCHAR n
ENCODING 110
SWIDTH 1136 0
DWIDTH 30 0
BBX 30 25 0 -5
BITMAP
00000000
00000000
00000000
00000000
00000000
00000000
00000000
00000000
7FF3FF00
7FFFFF80
0FFC3FC0
0FF03FC0
0FF03FC0
0FF03FC0
0FF03FC0
0FF03FC0
0FF03FC0
0FF03FC0
7FF03FF8
7FF03FF8
00000000
00000000
00000000
00000000
00000000
ENDCHAR

STARTCHAR o
ENCODING 111
SWIDTH 1136 0
DWIDTH 30 0
BBX 30 25 0 -5
BITMAP
00000000
00000000
00000000
00000000
00000000
00000000
00000000
00000000
01FFFF00
0FFFFFC0
3FE01FF0
7FC00FF8
7FC00FF8
7FC00FF8
7FC00FF8
7FC00FF8
7FC00FF8
3FE01FF0
1FFFFF80
03FFFC00
00000000
00000000
00000000
00000000
00000000
ENDCHAR

STARTCHAR p
ENCODING 112
SWIDTH 1136 0
DWIDTH 30 0
BBX 30 25 0 -5
BITMAP
00000000
00000000
00000000
00000000
00000000
00000000
00000000
00000000
7FF3FF00
7FFFFFC0
0FFC1FF0
0FF01FF0
0FF00FF8
0FF00FF8
0FF00FF8
0FF00FF8
0FF01FF0
0FFC3FF0
0FFFFFC0
0FF3FF00
0FF00000
0FF00000
0FF00000
7FFF8000
7FFF8000
ENDCHAR

STARTCHAR q
ENCODING 113
SWIDTH 1136 0
DWIDTH 30 0
BBX 30 25 0 -5
BITMAP
00000000
00000000
00000000
00000000
00000000
00000000
00000000
00000000
03FF3FF8
0FFFFFF8
3FE07FC0
7FC03FC0
7FC03FC0
7FC03FC0
7FC03FC0
7FC03FC0
7FE07FC0
3FFFFFC0
0FFFFFC0
03FF3FC0
00003FC0
00003FC0
00003FC0
000FFFF8
000FFFF8
ENDCHAR

STARTCHAR r
ENCODING 114
SWIDTH 1136 0
DWIDTH 30 0
BBX 30 25 0 -5
BITMAP
00000000
00000000
00000000
00000000
00000000
00000000
00000000
00000000
7FF8FFC0
7FFFFFF8
01FF03F8
01FF03F8
01FF0000
01FF0000
01FF0000
01FF0000
01FF0000
01FF0000
7FFFFE00
7FFFFE00
00000000
00000000
00000000
00000000
00000000
ENDCHAR

STARTCHAR s
ENCODING 115
SWIDTH 1136 0
DWIDTH 30 0
BBX 30 25 0 -5
BITMAP
00000000
00000000
00000000
00000000
00000000
00000000
00000000
00000000
01FFE3C0
07FFFFC0
0FF80FC0
0FF80FC0
07FFE000
03FFFF00
003FFF80
00003FC0
0FE03FC0
0FFFFFC0
0FFFFF80
0E3FFE00
00000000
00000000
00000000
00000000
00000000
ENDCHAR

STARTCHAR t
ENCODING 116
SWIDTH 1136 0
DWIDTH 30 0
BBX 30 25 0 -5
BITMAP
00000000
00000000
00000000
01FF0000
01FF0000
01FF0000
01FF0000
01FF0000
7FFFFFC0
7FFFFFC0
01FF0000
01FF0000
01FF0000
01FF0000
01FF0000
01FF0000
01FF0000
01FF81F0
01FFFFF0
003FFF00
00000000
00000000
00000000
00000000
00000000
ENDCHAR

STARTCHAR u
ENCODING 117
SWIDTH 1136 0
DWIDTH 30 0
BBX 30 25 0 -5
BITMAP
00000000
00000000
00000000
00000000
00000000
00000000
00000000
00000000
7FF0FFC0
7FF0FFC0
0FF03FC0
0FF03FC0
0FF03FC0
0FF03FC0
0FF03FC0
0FF03FC0
0FF07FC0
0FF8FFC0
07FFFFF8
01FFBFF8
00000000
00000000
00000000
00000000
00000000
ENDCHAR

STARTCHAR v
ENCODING 118
SWIDTH 1136 0
DWIDTH 30 0
BBX 30 25 0 -5
BITMAP
00000000
00000000
00000000
00000000
00000000
00000000
00000000
00000000
7FE00FF8
7FE00FF8
0FF01FC0
07F03F80
07F83F00
03F87F00
01FCFE00
01FCFC00
00FFF000
00FFF000
003FE000
003FC000
00000000
00000000
00000000
00000000
00000000
ENDCHAR

STARTCHAR w
ENCODING 119
SWIDTH 1136 0
DWIDTH 30 0
BBX 30 25 0 -5
BITMAP
00000000
00000000
00000000
00000000
00000000
00000000
00000000
00000000
7FC00FF8
7FC30FF8
0FC78FC0
0FC78FC0
0FCFCFC0
0FDFEFC0
07FFFF80
07FCFF80
07F8FF00
03F8FE00
03F07E00
03F07E00
00000000
00000000
00000000
00000000
00000000
ENDCHAR

STARTCHAR x
ENCODING 120
SWIDTH 1136 0
DWIDTH 30 0
BBX 30 25 0 -5
BITMAP
00000000
00000000
00000000
00000000
00000000
00000000
00000000
00000000
3FE01FF0
3FF03FF0
07F87F00
01FCFE00
00FFFC00
003FF000
003FFC00
00FFFE00
01FCFF00
03F87F80
7FF03FF8
7FC01FF8
00000000
00000000
00000000
00000000
00000000
ENDCHAR

STARTCHAR y
ENCODING 121
SWIDTH 1136 0
DWIDTH 30 0
BBX 30 25 0 -5
BITMAP
00000000
00000000
00000000
00000000
00000000
00000000
00000000
00000000
FFF03FF8
FFF03FF8
0FF01F80
07F83F00
03FC3E00
01FF7E00
00FFFC00
003FF000
001FF000
000FE000
000FC000
000FC000
001FC000
001F8000
003F8000
03FFF000
03FFF000
ENDCHAR

STARTCHAR z
ENCODING 122
SWIDTH 1136 0
DWIDTH 30 0
BBX 30 25 0 -5
BITMAP
00000000
00000000
00000000
00000000
00000000
00000000
00000000
00000000
3FFFFFC0
3FFFFFC0
3F007F80
3F00FF00
0007FC00
000FE000
003FC000
00FF03F0
03FC03F0
0FFFFFF0
3FFFFFF0
3FFFFFF0
00000000
00000000
00000000
00000000
00000000
ENDCHAR

STARTCHAR braceleft
ENCODING 123
SWIDTH 1136 0
DWIDTH 30 0
BBX 30 25 0 -5
BITMAP
00000000
00000000
0007FF00
000FFF00
001FFF00
001FE000
001FE000
001FE000
001FE000
001FE000
001FE000
003FE000
00FF0000
03F00000
00FF0000
003FE000
001FE000
001FE000
001FE000
001FE000
001FE000
001FFF00
000FFF00
0007FF00
00000000
ENDCHAR

STARTCHAR bar
ENCODING 124
SWIDTH 1136 0
DWIDTH 30 0
BBX 30 25 0 -5
BITMAP
00000000
00000000
001FE000
001FE000
001FE000
001FE000
001FE000
001FE000
001FE000
001FE000
001FE000
001FE000
001FE000
001FE000
001FE000
001FE000
001FE000
001FE000
001FE000
001FE000
001FE000
001FE000
001FE000
001FE000
00000000
ENDCHAR

STARTCHAR braceright
ENCODING 125
SWIDTH 1136 0
DWIDTH 30 0
BBX 30 25 0 -5
BITMAP
00000000
00000000
03FF8000
03FFC000
03FFE000
001FE000
001FE000
001FE000
001FE000
001FE000
001FF000
0003FC00
00003F00
0003FC00
001FF000
001FE000
001FE000
001FE000
001FE000
001FE000
001FE000
03FFE000
03FFC000
03FF8000
00000000
ENDCHAR

STARTCHAR asciitilde
ENCODING 126
SWIDTH 1136 0
DWIDTH 30 0
BBX 30 25 0 -5
BITMAP
00000000
00000000
00000000
00000000
00000000
00000000
00000000
00000000
00000000
07FC00F8
3FFFC1F8
7FFFFFF8
7E0FFFF0
7C00FF80
00000000
00000000
00000000
00000000
00000000
00000000
00000000
00000000
00000000
00000000
00000000
ENDCHAR

STARTCHAR space
ENCODING 160
SWIDTH 1136 0
DWIDTH 30 0
BBX 30 25 0 -5
BITMAP
00000000
00000000
00000000
00000000
00000000
00000000
00000000
00000000
00000000
00000000
00000000
00000000
00000000
00000000
00000000
00000000
00000000
00000000
00000000
00000000
00000000
00000000
00000000
00000000
00000000
ENDCHAR

STARTCHAR afii10023
ENCODING 161
SWIDTH 1136 0
DWIDTH 30 0
BBX 30 25 0 -5
BITMAP
07F03F80
0FF87FC0
07F03F80
00000000
00000000
3FFFFFF0
3FFFFFF0
3FFFFFF0
07F801F0
07F801F0
07F8F000
07FFF000
07FFF000
07F8F000
07F801F0
07F801F0
07F801F0
3FFFFFF0
3FFFFFF0
3FFFFFF0
00000000
00000000
00000000
00000000
00000000
ENDCHAR

STARTCHAR afii10051
ENCODING 162
SWIDTH 1136 0
DWIDTH 30 0
BBX 30 25 0 -5
BITMAP
00000000
00000000
00000000
00000000
00000000
FFFFFC00
FFFFFC00
FFFFFC00
F9FE7C00
F9FE7C00
01FE0000
01FFFFC0
01FF83F0
01FF01F8
01FE00F8
01FE00F8
01FE00F8
01FE01F8
1FFF83F0
1FFF9FC0
00000000
00000000
00000000
00000000
00000000
ENDCHAR

STARTCHAR afii10052
ENCODING 163
SWIDTH 1136 0
DWIDTH 30 0
BBX 30 25 0 -5
BITMAP
0003F000
000FC000
007E0000
00780000
00000000
7FFFFFF0
7FFFFFF0
7FFFFFF0
07F801F0
07F801F0
07F801F0
07F80000
07F80000
07F80000
07F80000
07F80000
07F80000
7FFFC000
7FFFC000
7FFFC000
00000000
00000000
00000000
00000000
00000000
ENDCHAR

STARTCHAR afii10053
ENCODING 164
SWIDTH 1136 0
DWIDTH 30 0
BBX 30 25 0 -5
BITMAP
00000000
00000000
00000000
00000000
00000000
00FFFBE0
07FFFFE0
1FE01FE0
3F8007E0
7E000000
7E000000
7FFFF000
7FFFF000
7E000000
7E000000
3F000000
1F8003F0
0FE00FE0
03FFFF80
007FF800
00000000
00000000
00000000
00000000
00000000
ENDCHAR

STARTCHAR afii10054
ENCODING 165
SWIDTH 1136 0
DWIDTH 30 0
BBX 30 25 0 -5
BITMAP
00000000
00000000
00000000
00000000
00000000
01FFCFC0
07FFFFC0
07FFFFC0
0FF00000
0FF00000
07FF0000
03FFF000
00FFFF00
0003FFC0
07E03FC0
07E03FC0
07F03FC0
07FFFF80
07FFFF80
07CFFE00
00000000
00000000
00000000
00000000
00000000
ENDCHAR

STARTCHAR afii10055
ENCODING 166
SWIDTH 1136 0
DWIDTH 30 0
BBX 30 25 0 -5
BITMAP
00000000
00000000
00000000
00000000
00000000
3FFFFFF0
3FFFFFF0
3FFFFFF0
001FE000
001FE000
001FE000
001FE000
001FE000
001FE000
001FE000
001FE000
001FE000
3FFFFFF0
3FFFFFF0
3FFFFFF0
00000000
00000000
00000000
00000000
00000000
ENDCHAR

STARTCHAR afii10056
ENCODING 167
SWIDTH 1136 0
DWIDTH 30 0
BBX 30 25 0 -5
BITMAP
07F03F80
0FF87FC0
07F03F80
00000000
00000000
3FFFFFF0
3FFFFFF0
3FFFFFF0
001FE000
001FE000
001FE000
001FE000
001FE000
001FE000
001FE000
001FE000
001FE000
3FFFFFF0
3FFFFFF0
3FFFFFF0
00000000
00000000
00000000
00000000
00000000
ENDCHAR

STARTCHAR afii10057
ENCODING 168
SWIDTH 1136 0
DWIDTH 30 0
BBX 30 25 0 -5
BITMAP
00000000
00000000
00000000
00000000
00000000
003FFFF8
003FFFF8
003FFFF8
0000FF00
0000FF00
0000FF00
0000FF00
0000FF00
7E00FF00
7E00FF00
7E00FF00
7F00FF00
7FFFFE00
7FFFFE00
0FFFF000
00000000
00000000
00000000
00000000
00000000
ENDCHAR

STARTCHAR afii10058
ENCODING 169
SWIDTH 1136 0
DWIDTH 30 0
BBX 30 25 0 -5
BITMAP
00000000
00000000
00000000
00000000
00000000
7FFFFF80
7FFFFF80
7FFFFF80
07F3F800
07F3F800
07F3F800
07F3FFC0
07F3FFF0
07F3FFF8
07F3F8F8
07F3F87C
C7F3F87C
E7EFFFF8
F7CFFFF0
7F0FFFC0
00000000
00000000
00000000
00000000
00000000
ENDCHAR

STARTCHAR afii10059
ENCODING 170
SWIDTH 1136 0
DWIDTH 30 0
BBX 30 25 0 -5
BITMAP
00000000
00000000
00000000
00000000
00000000
FF9FF000
FF9FF000
FF9FF000
7F0FE000
7F0FE000
7F0FE000
7F0FFF80
7FFFFFE0
7FFFFFF0
7F0FE078
7F0FE03C
7F0FE07C
FF9FFFF8
FF9FFFF0
FF9FFFC0
00000000
00000000
00000000
00000000
00000000
ENDCHAR

STARTCHAR afii10060
ENCODING 171
SWIDTH 1136 0
DWIDTH 30 0
BBX 30 25 0 -5
BITMAP
00000000
00000000
00000000
00000000
00000000
FFFFFC00
FFFFFC00
FFFFFC00
F9FC7C00
F9FC7C00
01FC0000
01FFFF80
01FF1FE0
01FE0FF0
01FC07F0
01FC07F0
01FC07F0
01FC07F0
1FFF3FFC
1FFF3FFC
00000000
00000000
00000000
00000000
00000000
ENDCHAR

STARTCHAR afii10061
ENCODING 172
SWIDTH 1136 0
DWIDTH 30 0
BBX 30 25 0 -5
BITMAP
00000000
0001F800
000FC000
003F0000
00000000
7FE07FF0
7FE07FF0
7FE0FFF0
1FE1FC00
1FE3F000
1FEFE000
1FFF8000
1FEFF000
1FE1F800
1FE0FC00
1FE07E00
1FE03F80
7FE01FF8
7FE01FF8
7FE01FF8
00000000
00000000
00000000
00000000
00000000
ENDCHAR

STARTCHAR hyphen
ENCODING 173
SWIDTH 1136 0
DWIDTH 30 0
BBX 30 25 0 -5
BITMAP
00000000
00000000
00000000
00000000
00000000
00000000
00000000
00000000
00000000
00000000
00000000
00000000
00000000
3FFFFFF0
3FFFFFF0
3FFFFFF0
00000000
00000000
00000000
00000000
00000000
00000000
00000000
00000000
00000000
ENDCHAR

STARTCHAR afii10062
ENCODING 174
SWIDTH 1136 0
DWIDTH 30 0
BBX 30 25 0 -5
BITMAP
00600600
01F00F80
00FC3F00
001FF800
00000000
7FF01FF8
7FF01FF8
7FF83FF8
07F83F80
03FC7F00
01FFFE00
00FFFC00
003FF000
001FF000
001FE000
001FE000
3E0FC000
3E1FC000
3E7F0000
1FFC0000
00000000
00000000
00000000
00000000
00000000
ENDCHAR

STARTCHAR afii10145
ENCODING 175
SWIDTH 1136 0
DWIDTH 30 0
BBX 30 25 0 -5
BITMAP
00000000
00000000
00000000
00000000
00000000
FFFC7FFC
FFFC7FFC
FFFC7FFC
1FF01FE0
1FF01FE0
1FF01FE0
1FF01FE0
1FF01FE0
1FF01FE0
1FF01FE0
1FF01FE0
1FF01FE0
FFFFFFFC
FFFFFFFC
FFFFFFFC
0007C000
0007C000
0007C000
00038000
00000000
ENDCHAR

STARTCHAR afii10017
ENCODING 176
SWIDTH 1136 0
DWIDTH 30 0
BBX 30 25 0 -5
BITMAP
00000000
00000000
00000000
00000000
00000000
001FF000
003FFC00
003FFC00
00FFFE00
00FCFE00
01F8FE00
01F87F00
03F07F00
03FFFF80
07FFFF80
07C03FC0
0FC01FC0
7FF07FF8
7FF07FF8
7FF07FF8
00000000
00000000
00000000
00000000
00000000
ENDCHAR

STARTCHAR afii10018
ENCODING 177
SWIDTH 1136 0
DWIDTH 30 0
BBX 30 25 0 -5
BITMAP
00000000
00000000
00000000
00000000
00000000
FFFFFFE0
FFFFFFE0
FFFFFFE0
0FF003E0
0FF003E0
0FF00000
0FF00000
0FFFFF80
0FFFFFE0
0FF001F0
0FF000F8
0FF003F8
FFFFFFF0
FFFFFFE0
FFFFFF80
00000000
00000000
00000000
00000000
00000000
ENDCHAR

STARTCHAR afii10019
ENCODING 178
SWIDTH 1136 0
DWIDTH 30 0
BBX 30 25 0 -5
BITMAP
00000000
00000000
00000000
00000000
00000000
7FFFFF00
7FFFFF80
7FFFFFC0
0FF03FC0
0FF03F80
0FF03F00
0FFFFF00
0FFFFFC0
0FF00FF0
0FF00FF8
0FF00FF8
0FF00FF8
7FFFFFF0
7FFFFFE0
7FFFFF80
00000000
00000000
00000000
00000000
00000000
ENDCHAR

STARTCHAR afii10020
ENCODING 179
SWIDTH 1136 0
DWIDTH 30 0
BBX 30 25 0 -5
BITMAP
00000000
00000000
00000000
00000000
00000000
7FFFFFF0
7FFFFFF0
7FFFFFF0
07F801F0
07F801F0
07F801F0
07F80000
07F80000
07F80000
07F80000
07F80000
07F80000
7FFFC000
7FFFC000
7FFFC000
00000000
00000000
00000000
00000000
00000000
ENDCHAR

STARTCHAR afii10021
ENCODING 180
SWIDTH 1136 0
DWIDTH 30 0
BBX 30 25 0 -5
BITMAP
00000000
00000000
00000000
00000000
00000000
3FFFFFFC
3FFFFFFC
3FFFFFFC
03FC0FF0
03FC0FF0
03FC0FF0
03FC0FF0
03FC0FF0
03F80FF0
03F80FF0
03F00FF0
07F00FF0
0FE00FF0
3FFFFFF0
FFFFFFF8
F80000F8
F80000F8
F80000F8
F80000F8
00000000
ENDCHAR

STARTCHAR afii10022
ENCODING 181
SWIDTH 1136 0
DWIDTH 30 0
BBX 30 25 0 -5
BITMAP
00000000
00000000
00000000
00000000
00000000
3FFFFFF0
3FFFFFF0
3FFFFFF0
07F801F0
07F801F0
07F8F000
07FFF000
07FFF000
07F8F000
07F801F0
07F801F0
07F801F0
3FFFFFF0
3FFFFFF0
3FFFFFF0
00000000
00000000
00000000
00000000
00000000
ENDCHAR

STARTCHAR afii10024
ENCODING 182
SWIDTH 1136 0
DWIDTH 30 0
BBX 30 25 0 -5
BITMAP
00000000
00000000
00000000
00000000
00000000
FCFFF3FC
FE3FC7FC
F73FCFBC
07BFFF00
03FFFE00
01FFFC00
00FFF000
01FFFC00
07FFFE00
0FFFDF00
1FBFCF80
1F3FCFC0
3E3FC7E0
7C3FC3F0
FCFFF1FC
00000000
00000000
00000000
00000000
00000000
ENDCHAR

STARTCHAR afii10025
ENCODING 183
SWIDTH 1136 0
DWIDTH 30 0
BBX 30 25 0 -5
BITMAP
00000000
00000000
00000000
00000000
00000000
3EFFFC00
3FFFFF80
3F801FE0
3F000FF0
3E000FF0
3C001FE0
00007F00
01FFFC00
00001FE0
000007F0
000007F0
000007F0
FC000FE0
7FFFFF80
03FFFC00
00000000
00000000
00000000
00000000
00000000
ENDCHAR

STARTCHAR afii10026
ENCODING 184
SWIDTH 1136 0
DWIDTH 30 0
BBX 30 25 0 -5
BITMAP
00000000
00000000
00000000
00000000
00000000
FFF01FFC
FFF03FFC
FFF07FFC
3FC0FFF0
3FC1FFF0
3FC3EFF0
3FC7CFF0
3FCF8FF0
3FDF0FF0
3FFE0FF0
3FF80FF0
3FF00FF0
FFE0FFFC
FFE0FFFC
FFE0FFFC
00000000
00000000
00000000
00000000
00000000
ENDCHAR

STARTCHAR afii10027
ENCODING 185
SWIDTH 1136 0
DWIDTH 30 0
BBX 30 25 0 -5
BITMAP
00C00C00
03E01F00
01F87E00
003FF000
00000000
FFF01FFC
FFF03FFC
FFF07FFC
3FC0FFF0
3FC1FFF0
3FC3EFF0
3FC7CFF0
3FDF8FF0
3FFF0FF0
3FFE0FF0
3FF80FF0
3FF00FF0
FFE0FFFC
FFE0FFFC
FFE0FFFC
00000000
00000000
00000000
00000000
00000000
ENDCHAR

STARTCHAR afii10028
ENCODING 186
SWIDTH 1136 0
DWIDTH 30 0
BBX 30 25 0 -5
BITMAP
00000000
00000000
00000000
00000000
00000000
7FE07FF0
7FE07FF0
7FE0FFF0
1FE1FC00
1FE3F000
1FEFE000
1FFF8000
1FEFF000
1FE1F800
1FE0FC00
1FE07E00
1FE03F80
7FE01FF8
7FE01FF8
7FE01FF8
00000000
00000000
00000000
00000000
00000000
ENDCHAR

STARTCHAR afii10029
ENCODING 187
SWIDTH 1136 0
DWIDTH 30 0
BBX 30 25 0 -5
BITMAP
00000000
00000000
00000000
00000000
00000000
0FFFFFFC
0FFFFFFC
0FFFFFFC
01FE0FF0
01FE0FF0
01FE0FF0
01FE0FF0
01FE0FF0
01FE0FF0
01FE0FF0
01FC0FF0
F1FC0FF0
F9F87FFC
FBE07FFC
7F807FFC
00000000
00000000
00000000
00000000
00000000
ENDCHAR

STARTCHAR afii10030
ENCODING 188
SWIDTH 1136 0
DWIDTH 30 0
BBX 30 25 0 -5
BITMAP
00000000
00000000
00000000
00000000
00000000
7FC003F8
7FE00FF8
7FE00FF8
0FF01FC0
0FF83FC0
0FFC7FC0
0FFFFFC0
0FDFEFC0
0FCFCFC0
0FE79FC0
0FE79FC0
0FE01FC0
7FE01FF8
7FE01FF8
7FE01FF8
00000000
00000000
00000000
00000000
00000000
ENDCHAR

STARTCHAR afii10031
ENCODING 189
SWIDTH 1136 0
DWIDTH 30 0
BBX 30 25 0 -5
BITMAP
00000000
00000000
00000000
00000000
00000000
7FF03FF8
7FF03FF8
7FF03FF8
0FF03FC0
0FF03FC0
0FF03FC0
0FFFFFC0
0FFFFFC0
0FF03FC0
0FF03FC0
0FF03FC0
0FF03FC0
7FF03FF8
7FF03FF8
7FF03FF8
00000000
00000000
00000000
00000000
00000000
ENDCHAR

STARTCHAR afii10032
ENCODING 190
SWIDTH 1136 0
DWIDTH 30 0
BBX 30 25 0 -5
BITMAP
00000000
00000000
00000000
00000000
00000000
00FFFC00
07FFFF80
0FF87FC0
3FE01FF0
3FC00FF0
7FC00FF8
7F0003F8
7F0003F8
7F0003F8
7FC00FF8
3FC00FF0
3FE01FF0
1FF87FC0
0FFFFF00
01FFF800
00000000
00000000
00000000
00000000
00000000
ENDCHAR

STARTCHAR afii10033
ENCODING 191
SWIDTH 1136 0
DWIDTH 30 0
BBX 30 25 0 -5
BITMAP
00000000
00000000
00000000
00000000
00000000
7FFFFFF8
7FFFFFF8
7FFFFFF8
0FF03FC0
0FF03FC0
0FF03FC0
0FF03FC0
0FF03FC0
0FF03FC0
0FF03FC0
0FF03FC0
0FF03FC0
7FFCFFF8
7FFCFFF8
7FFCFFF8
00000000
00000000
00000000
00000000
00000000
ENDCHAR

STARTCHAR afii10034
ENCODING 192
SWIDTH 1136 0
DWIDTH 30 0
BBX 30 25 0 -5
BITMAP
00000000
00000000
00000000
00000000
00000000
3FFFFF80
3FFFFFC0
3FFFFFF0
03FC1FF0
03FC1FF0
03FC1FF0
03FC1FF0
03FFFFC0
03FFFF80
03FC0000
03FC0000
03FC0000
3FFFC000
3FFFC000
3FFFC000
00000000
00000000
00000000
00000000
00000000
ENDCHAR

STARTCHAR afii10035
ENCODING 193
SWIDTH 1136 0
DWIDTH 30 0
BBX 30 25 0 -5
BITMAP
00000000
00000000
00000000
00000000
00000000
00FFF0F8
07FFFFF8
0FFFFFF8
3FE00FF8
7FC001F8
7FC001F8
7FC00000
7FC00000
7FC00000
7FC00000
7FE00000
3FF001F8
0FFFFFF8
07FFFFF8
00FFFF00
00000000
00000000
00000000
00000000
00000000
ENDCHAR

STARTCHAR afii10036
ENCODING 194
SWIDTH 1136 0
DWIDTH 30 0
BBX 30 25 0 -5
BITMAP
00000000
00000000
00000000
00000000
00000000
7FFFFFF8
7FFFFFF8
7FFFFFF8
7E1FE1F8
7E1FE1F8
7E1FE1F8
7E1FE1F8
001FE000
001FE000
001FE000
001FE000
001FE000
01FFFE00
01FFFE00
01FFFE00
00000000
00000000
00000000
00000000
00000000
ENDCHAR

STARTCHAR afii10037
ENCODING 195
SWIDTH 1136 0
DWIDTH 30 0
BBX 30 25 0 -5
BITMAP
00000000
00000000
00000000
00000000
00000000
7FF01FF8
7FF01FF8
7FF83FF8
07F83F80
03FC7F00
01FFFE00
00FFFC00
003FF000
001FF000
001FE000
001FE000
3E0FC000
3E1FC000
3E7F0000
1FFC0000
00000000
00000000
00000000
00000000
00000000
ENDCHAR

STARTCHAR afii10038
ENCODING 196
SWIDTH 1136 0
DWIDTH 30 0
BBX 30 25 0 -5
BITMAP
00000000
00000000
00000000
007FFC00
007FFC00
001FF000
00FFFC00
07FFFFC0
1F8FE3F0
3E0FE1F8
7E0FE0F8
7C0FE0F8
7E0FE0F8
3E0FE1F8
1F8FE3F0
07FFFFC0
007FF800
001FF000
007FFC00
007FFC00
00000000
00000000
00000000
00000000
00000000
ENDCHAR

STARTCHAR afii10039
ENCODING 197
SWIDTH 1136 0
DWIDTH 30 0
BBX 30 25 0 -5
BITMAP
00000000
00000000
00000000
00000000
00000000
7FE00FF0
7FF01FF0
7FF83FF0
07FC7F00
03FFFE00
00FFFC00
003FF000
001FF000
003FFC00
00FFFE00
03F8FF00
07F07F80
7FE03FF8
7FE03FF8
7FE01FF8
00000000
00000000
00000000
00000000
00000000
ENDCHAR

STARTCHAR afii10040
ENCODING 198
SWIDTH 1136 0
DWIDTH 30 0
BBX 30 25 0 -5
BITMAP
00000000
00000000
00000000
00000000
00000000
FFF9FFF0
FFF9FFF0
FFF9FFF0
1FE07F80
1FE07F80
1FE07F80
1FE07F80
1FE07F80
1FE07F80
1FE07F80
1FE07F80
1FE07F80
FFFFFFF8
FFFFFFF8
FFFFFFF8
000000F8
000000F8
000000F8
00000000
00000000
ENDCHAR

STARTCHAR afii10041
ENCODING 199
SWIDTH 1136 0
DWIDTH 30 0
BBX 30 25 0 -5
BITMAP
00000000
00000000
00000000
00000000
00000000
FFF07FFC
FFF07FFC
FFF07FFC
3FC00FF0
3FC00FF0
3FC00FF0
1FC00FF0
0FE03FF0
07FFFFF0
01FFCFF0
00000FF0
00000FF0
0003FFFC
0003FFFC
0003FFFC
00000000
00000000
00000000
00000000
00000000
ENDCHAR

STARTCHAR afii10042
ENCODING 200
SWIDTH 1136 0
DWIDTH 30 0
BBX 30 25 0 -5
BITMAP
00000000
00000000
00000000
00000000
00000000
FFBFEFF8
FFBFEFF8
FFBFEFF8
7F1FC7F0
7F1FC7F0
7F1FC7F0
7F1FC7F0
7F1FC7F0
7F1FC7F0
7F1FC7F0
7F1FC7F0
7F1FC7F0
FFFFFFF8
FFFFFFF8
FFFFFFF8
00000000
00000000
00000000
00000000
00000000
ENDCHAR

STARTCHAR afii10043
ENCODING 201
SWIDTH 1136 0
DWIDTH 30 0
BBX 30 25 0 -5
BITMAP
00000000
00000000
00000000
00000000
00000000
FF9FF7FC
FF9FF7FC
FF9FF7FC
7F0FE3F8
7F0FE3F8
7F0FE3F8
7F0FE3F8
7F0FE3F8
7F0FE3F8
7F0FE3F8
7F0FE3F8
7F0FE3F8
FFFFFFFC
FFFFFFFC
FFFFFFFC
0000007C
0000007C
0000007C
0000007C
00000000
ENDCHAR

STARTCHAR afii10044
ENCODING 202
SWIDTH 1136 0
DWIDTH 30 0
BBX 30 25 0 -5
BITMAP
00000000
00000000
00000000
00000000
00000000
FFFFC000
FFFFC000
FFFFC000
F8FE0000
F8FE0000
F8FE0000
00FE0000
00FFFF80
00FFFFF0
00FE00F8
00FE007C
00FC007C
07FFFFF8
07FFFFF0
07FFFF80
00000000
00000000
00000000
00000000
00000000
ENDCHAR

STARTCHAR afii10045
ENCODING 203
SWIDTH 1136 0
DWIDTH 30 0
BBX 30 25 0 -5
BITMAP
00000000
00000000
00000000
00000000
00000000
FFE007FC
FFE007FC
FFE007FC
3F8003F8
3F8003F8
3F8003F8
3FFF83F8
3FFFC3F8
3FFFF3F8
3F81FBF8
3F80FBF8
3F81F3F8
FFFFE7FC
FFFFC7FC
FFFF87FC
00000000
00000000
00000000
00000000
00000000
ENDCHAR

STARTCHAR afii10046
ENCODING 204
SWIDTH 1136 0
DWIDTH 30 0
BBX 30 25 0 -5
BITMAP
00000000
00000000
00000000
00000000
00000000
FFF80000
FFF80000
FFF80000
3FC00000
3FC00000
3FC00000
3FFFFC00
3FFFFF00
3FFFFFC0
3FC003E0
3FC001F0
3FC003F0
FFFFFFE0
FFFFFFC0
FFFFFF00
00000000
00000000
00000000
00000000
00000000
ENDCHAR

STARTCHAR afii10047
ENCODING 205
SWIDTH 1136 0
DWIDTH 30 0
BBX 30 25 0 -5
BITMAP
00000000
00000000
00000000
00000000
00000000
3F0FFF00
3FFFFF80
3FFFFFC0
3F800FF0
3F0007F8
000007F8
00FFFFF8
00FFFFF8
000007F8
000007F8
00000FF0
3E001FE0
3FFFFF80
0FFFFF00
01FFFE00
00000000
00000000
00000000
00000000
00000000
ENDCHAR

STARTCHAR afii10048
ENCODING 206
SWIDTH 1136 0
DWIDTH 30 0
BBX 30 25 0 -5
BITMAP
00000000
00000000
00000000
00000000
00000000
FF87FF80
FF9FFFE0
FFBF87F0
7F7E01F8
7F7C00F8
7FFC00FC
7FF8007C
7FF8007C
7FF8007C
7FFC007C
7F7C00FC
7F7E01F8
FFBF87F8
FF9FFFF0
FF83FF80
00000000
00000000
00000000
00000000
00000000
ENDCHAR

STARTCHAR afii10049
ENCODING 207
SWIDTH 1136 0
DWIDTH 30 0
BBX 30 25 0 -5
BITMAP
00000000
00000000
00000000
00000000
00000000
01FFFFF8
07FFFFF8
0FFFFFF8
1F003FC0
1F003FC0
0F803FC0
07F03FC0
003FFFC0
00FFFFC0
03F03FC0
07C03FC0
1F803FC0
FF03FFF8
FE03FFF8
FC03FFF8
00000000
00000000
00000000
00000000
00000000
ENDCHAR

STARTCHAR afii10065
ENCODING 208
SWIDTH 1136 0
DWIDTH 30 0
BBX 30 25 0 -5
BITMAP
00000000
00000000
00000000
00000000
00000000
00000000
00000000
00000000
07FFFF00
07FFFF80
00003FC0
00003FC0
07FFFFC0
3FFFFFC0
7FC03FC0
7FC03FC0
7FC07FC0
7FFFFFC0
3FFFFFF8
0FFF3FF8
00000000
00000000
00000000
00000000
00000000
ENDCHAR

STARTCHAR afii10066
ENCODING 209
SWIDTH 1136 0
DWIDTH 30 0
BBX 30 25 0 -5
BITMAP
00000000
00000000
00000000
00000000
00001F00
00001F00
03FFFE00
1FFFFE00
3E000000
7EFFFC00
7FFFFF00
7F801FC0
7F0007E0
7C0001F0
7C0001F0
7C0003F0
3F0007E0
1FC01FC0
0FFFFF00
00FFF800
00000000
00000000
00000000
00000000
00000000
ENDCHAR

STARTCHAR afii10067
ENCODING 210
SWIDTH 1136 0
DWIDTH 30 0
BBX 30 25 0 -5
BITMAP
00000000
00000000
00000000
00000000
00000000
00000000
00000000
00000000
7FFFFC00
7FFFFE00
0FF01F00
0FF01F00
0FF03E00
0FFFF800
0FFFFF80
0FF007C0
0FF003E0
0FF007E0
7FFFFFC0
7FFFFF00
00000000
00000000
00000000
00000000
00000000
ENDCHAR

STARTCHAR afii10068
ENCODING 211
SWIDTH 1136 0
DWIDTH 30 0
BBX 30 25 0 -5
BITMAP
00000000
00000000
00000000
00000000
00000000
00000000
00000000
00000000
7FFFFFE0
7FFFFFE0
01FE03E0
01FE03E0
01FE03E0
01FE03E0
01FE0000
01FE0000
01FE0000
01FE0000
7FFFE000
7FFFE000
00000000
00000000
00000000
00000000
00000000
ENDCHAR

STARTCHAR afii10069
ENCODING 212
SWIDTH 1136 0
DWIDTH 30 0
BBX 30 25 0 -5
BITMAP
00000000
00000000
00000000
00000000
00000000
00000000
00000000
00000000
1FFFFFF8
1FFFFFF8
03FC1FE0
03FC1FE0
03FC1FE0
03FC1FE0
03FC1FE0
03FC1FE0
07F81FE0
0FF81FE0
FFFFFFF8
FFFFFFF8
F80001F8
F80001F8
F80001F8
00000000
00000000
ENDCHAR

STARTCHAR afii10070
ENCODING 213
SWIDTH 1136 0
DWIDTH 30 0
BBX 30 25 0 -5
BITMAP
00000000
00000000
00000000
00000000
00000000
00000000
00000000
00000000
03FFFF00
0FFFFFC0
3FF01FF0
3FE00FF0
7FE00FF0
7FFFFFF0
7FFFFFC0
7FE00000
3FE00000
3FF00000
0FFFFFF0
03FFFF80
00000000
00000000
00000000
00000000
00000000
ENDCHAR

STARTCHAR afii10072
ENCODING 214
SWIDTH 1136 0
DWIDTH 30 0
BBX 30 25 0 -5
BITMAP
00000000
00000000
00000000
00000000
00000000
00000000
00000000
00000000
FC7FF3F8
FC7FF3F8
FF9FCFF8
F7DFFF78
03FFFE00
00FFF000
01FFF800
07FFFE00
0F9FDF00
1F9FCFC0
7F3FE7FC
FF3FE3FC
00000000
00000000
00000000
00000000
00000000
ENDCHAR

STARTCHAR afii10073
ENCODING 215
SWIDTH 1136 0
DWIDTH 30 0
BBX 30 25 0 -5
BITMAP
00000000
00000000
00000000
00000000
00000000
00000000
00000000
00000000
00000000
1F7FFE00
1FFFFF80
1F000FE0
1F000FE0
007FFD80
007FFE00
00000FC0
000007F0
7F800FE0
7FFFFFC0
03FFFE00
00000000
00000000
00000000
00000000
00000000
ENDCHAR

STARTCHAR afii10074
ENCODING 216
SWIDTH 1136 0
DWIDTH 30 0
BBX 30 25 0 -5
BITMAP
00000000
00000000
00000000
00000000
00000000
00000000
00000000
00000000
FFF807FC
FFF80FFC
3FC03FF0
3FC07FF0
3FC1FFF0
3FC3EFF0
3FCFCFF0
3FDF0FF0
3FFE0FF0
3FF80FF0
FFF07FFC
FFC07FFC
00000000
00000000
00000000
00000000
00000000
ENDCHAR

STARTCHAR afii10075
ENCODING 217
SWIDTH 1136 0
DWIDTH 30 0
BBX 30 25 0 -5
BITMAP
00000000
00000000
00000000
00E00700
01F01F80
00F83F00
003FF800
00000000
FFF807FC
FFF80FFC
3FC01FF0
3FC07FF0
3FC1FFF0
3FC3EFF0
3FCFCFF0
3FDF0FF0
3FFE0FF0
3FF80FF0
FFF07FFC
FFC07FFC
00000000
00000000
00000000
00000000
00000000
ENDCHAR

STARTCHAR afii10076
ENCODING 218
SWIDTH 1136 0
DWIDTH 30 0
BBX 30 25 0 -5
BITMAP
00000000
00000000
00000000
00000000
00000000
00000000
00000000
00000000
FFFC1FE0
FFFC3FE0
1FE0FDF0
1FE1F3E0
1FE7E000
1FFF0000
1FFFC000
1FE3F000
1FE0F800
1FE07E00
FFFC1FF8
FFFC0FF8
00000000
00000000
00000000
00000000
00000000
ENDCHAR

STARTCHAR afii10077
ENCODING 219
SWIDTH 1136 0
DWIDTH 30 0
BBX 30 25 0 -5
BITMAP
00000000
00000000
00000000
00000000
00000000
00000000
00000000
00000000
0FFFFFFC
0FFFFFFC
00FF0FF0
00FF0FF0
00FF0FF0
00FF0FF0
00FF0FF0
00FF0FF0
F8FF0FF0
F8FE0FF0
FFF80FFC
FFE00FFC
00000000
00000000
00000000
00000000
00000000
ENDCHAR

STARTCHAR afii10078
ENCODING 220
SWIDTH 1136 0
DWIDTH 30 0
BBX 30 25 0 -5
BITMAP
00000000
00000000
00000000
00000000
00000000
00000000
00000000
00000000
FF000FF8
FF801FF8
3FC03FE0
3FE07FE0
3FF0FFE0
3FF8FFE0
3FFDFFE0
3F7FEFE0
3F3FCFE0
3F0F8FE0
FF000FF8
FF000FF8
00000000
00000000
00000000
00000000
00000000
ENDCHAR

STARTCHAR afii10079
ENCODING 221
SWIDTH 1136 0
DWIDTH 30 0
BBX 30 25 0 -5
BITMAP
00000000
00000000
00000000
00000000
00000000
00000000
00000000
00000000
7FE01FF8
7FE01FF8
1FE01FE0
1FE01FE0
1FE01FE0
1FFFFFE0
1FFFFFE0
1FE01FE0
1FE01FE0
1FE01FE0
7FE01FF8
7FE01FF8
00000000
00000000
00000000
00000000
00000000
ENDCHAR

STARTCHAR afii10080
ENCODING 222
SWIDTH 1136 0
DWIDTH 30 0
BBX 30 25 0 -5
BITMAP
00000000
00000000
00000000
00000000
00000000
00000000
00000000
00000000
01FFFF00
0FFFFFC0
3FE01FF0
7FC00FF8
7FC00FF8
7FC00FF8
7FC00FF8
7FC00FF8
7FC00FF8
3FE01FF0
1FFFFF80
03FFFC00
00000000
00000000
00000000
00000000
00000000
ENDCHAR

STARTCHAR afii10081
ENCODING 223
SWIDTH 1136 0
DWIDTH 30 0
BBX 30 25 0 -5
BITMAP
00000000
00000000
00000000
00000000
00000000
00000000
00000000
00000000
7FFFFFF8
7FFFFFF8
1FE01FE0
1FE01FE0
1FE01FE0
1FE01FE0
1FE01FE0
1FE01FE0
1FE01FE0
1FE01FE0
7FF87FF8
7FF87FF8
00000000
00000000
00000000
00000000
00000000
ENDCHAR

STARTCHAR afii10082
ENCODING 224
SWIDTH 1136 0
DWIDTH 30 0
BBX 30 25 0 -5
BITMAP
00000000
00000000
00000000
00000000
00000000
00000000
00000000
00000000
7FF3FF00
7FFFFFC0
0FFC1FF0
0FF01FF0
0FF00FF8
0FF00FF8
0FF00FF8
0FF00FF8
0FF01FF0
0FFC3FF0
0FFFFFC0
0FF3FF00
0FF00000
0FF00000
0FF00000
7FFF8000
7FFF8000
ENDCHAR

STARTCHAR afii10083
ENCODING 225
SWIDTH 1136 0
DWIDTH 30 0
BBX 30 25 0 -5
BITMAP
00000000
00000000
00000000
00000000
00000000
00000000
00000000
00000000
01FFF0F8
07FFFFF8
0FF81FF8
0FF00FF8
3FE001F8
3FE00000
3FE00000
3FF00000
3FF00000
0FFC03F0
07FFFFF0
01FFFF80
00000000
00000000
00000000
00000000
00000000
ENDCHAR

STARTCHAR afii10084
ENCODING 226
SWIDTH 1136 0
DWIDTH 30 0
BBX 30 25 0 -5
BITMAP
00000000
00000000
00000000
00000000
00000000
00000000
00000000
00000000
3FFFFFE0
3FFFFFE0
3E1FE3E0
3E1FE3E0
3E1FE3E0
3E1FE3E0
3E1FE3E0
001FE000
001FE000
001FE000
07FFFF00
07FFFF00
00000000
00000000
00000000
00000000
00000000
ENDCHAR

STARTCHAR afii10085
ENCODING 227
SWIDTH 1136 0
DWIDTH 30 0
BBX 30 25 0 -5
BITMAP
00000000
00000000
00000000
00000000
00000000
00000000
00000000
00000000
FFF03FF8
FFF03FF8
0FF01F80
07F83F00
03FC3E00
01FF7E00
00FFFC00
003FF000
001FF000
000FE000
000FC000
1E078000
1E1F8000
1E7F0000
0FFC0000
00000000
00000000
ENDCHAR

STARTCHAR afii10086
ENCODING 228
SWIDTH 1136 0
DWIDTH 30 0
BBX 30 25 0 -5
BITMAP
00000000
00000000
00000000
00000000
01FFC000
01FFC000
001FC000
001FC000
001FC000
07FFFE00
1F9FCFC0
3F1FC7E0
7E1FC3F0
7C1FC1F0
7C1FC1F0
7C1FC1F0
7E1FC3F0
3F1FC7E0
1FDFDFC0
07FFFF00
001FC000
001FC000
03FFFE00
03FFFE00
00000000
ENDCHAR

STARTCHAR afii10087
ENCODING 229
SWIDTH 1136 0
DWIDTH 30 0
BBX 30 25 0 -5
BITMAP
00000000
00000000
00000000
00000000
00000000
00000000
00000000
00000000
3FE01FF0
3FF03FF0
07F87F00
01FCFE00
00FFFC00
003FF000
003FFC00
00FFFE00
01FCFF00
03F87F80
7FF03FF8
7FC01FF8
00000000
00000000
00000000
00000000
00000000
ENDCHAR

STARTCHAR afii10088
ENCODING 230
SWIDTH 1136 0
DWIDTH 30 0
BBX 30 25 0 -5
BITMAP
00000000
00000000
00000000
00000000
00000000
00000000
00000000
00000000
FFF1FFE0
FFF1FFE0
3FC07F80
3FC07F80
3FC07F80
3FC07F80
3FC07F80
3FC07F80
3FC07F80
3FC07F80
FFFFFFF0
FFFFFFF0
000001F8
000001F8
000001F8
00000000
00000000
ENDCHAR

STARTCHAR afii10089
ENCODING 231
SWIDTH 1136 0
DWIDTH 30 0
BBX 30 25 0 -5
BITMAP
00000000
00000000
00000000
00000000
00000000
00000000
00000000
00000000
FFF9FFF8
FFF9FFF8
1F001FE0
1F001FE0
1F001FE0
1F807FE0
0FFFFFE0
03FFDFE0
00001FE0
00001FE0
0000FFF8
0000FFF8
00000000
00000000
00000000
00000000
00000000
ENDCHAR

STARTCHAR afii10090
ENCODING 232
SWIDTH 1136 0
DWIDTH 30 0
BBX 30 25 0 -5
BITMAP
00000000
00000000
00000000
00000000
00000000
00000000
00000000
00000000
FFBFEFF8
FFBFEFF8
7F1FC7F0
7F1FC7F0
7F1FC7F0
7F1FC7F0
7F1FC7F0
7F1FC7F0
7F1FC7F0
7F1FC7F0
FFFFFFF8
FFFFFFF8
00000000
00000000
00000000
00000000
00000000
ENDCHAR

STARTCHAR afii10091
ENCODING 233
SWIDTH 1136 0
DWIDTH 30 0
BBX 30 25 0 -5
BITMAP
00000000
00000000
00000000
00000000
00000000
00000000
00000000
00000000
FFBFEFF8
FFBFEFF8
7F1FC7F0
7F1FC7F0
7F1FC7F0
7F1FC7F0
7F1FC7F0
7F1FC7F0
7F1FC7F0
7F1FC7F0
FFFFFFF8
FFFFFFF8
000000F8
000000F8
000000F8
00000000
00000000
ENDCHAR

STARTCHAR afii10092
ENCODING 234
SWIDTH 1136 0
DWIDTH 30 0
BBX 30 25 0 -5
BITMAP
00000000
00000000
00000000
00000000
00000000
00000000
00000000
00000000
FFFFC000
FFFFC000
F9FE0000
F9FE0000
F9FE0000
F9FFFF80
01FFFFE0
01FE01F0
01FE00F8
01FE01F8
07FFFFF0
07FFFFC0
00000000
00000000
00000000
00000000
00000000
ENDCHAR

STARTCHAR afii10093
ENCODING 235
SWIDTH 1136 0
DWIDTH 30 0
BBX 30 25 0 -5
BITMAP
00000000
00000000
00000000
00000000
00000000
00000000
00000000
00000000
FFF00FFC
FFF00FFC
3FC007F8
3FC007F8
3FC007F8
3FFF87F8
3FFFE7F8
3FC1F7F8
3FC0F7F8
3FC1F7F8
FFFFEFFC
FFFFCFFC
00000000
00000000
00000000
00000000
00000000
ENDCHAR

STARTCHAR afii10094
ENCODING 236
SWIDTH 1136 0
DWIDTH 30 0
BBX 30 25 0 -5
BITMAP
00000000
00000000
00000000
00000000
00000000
00000000
00000000
00000000
FFFC0000
FFFC0000
1FE00000
1FE00000
1FE00000
1FFFF800
1FFFFE00
1FE01F00
1FE00F80
1FE01F80
FFFFFF00
FFFFFC00
00000000
00000000
00000000
00000000
00000000
ENDCHAR

STARTCHAR afii10095
ENCODING 237
SWIDTH 1136 0
DWIDTH 30 0
BBX 30 25 0 -5
BITMAP
00000000
00000000
00000000
00000000
00000000
00000000
00000000
00000000
3E1FFE00
3FFFFF00
3FC0FF80
3F007F80
3E007FC0
007FFFC0
007FFFC0
00003FC0
00003FC0
7C01FF80
7FFFFE00
07FFF000
00000000
00000000
00000000
00000000
00000000
ENDCHAR

STARTCHAR afii10096
ENCODING 238
SWIDTH 1136 0
DWIDTH 30 0
BBX 30 25 0 -5
BITMAP
00000000
00000000
00000000
00000000
00000000
00000000
00000000
00000000
FFC3FF80
FFCFFFE0
7F9F83F0
7FBF01F8
7FFE00FC
7FFC007C
7FFC007C
7FFE00FC
7FFF00F8
7FBF81F0
FFCFFFE0
FFC3FF80
00000000
00000000
00000000
00000000
00000000
ENDCHAR

STARTCHAR afii10097
ENCODING 239
SWIDTH 1136 0
DWIDTH 30 0
BBX 30 25 0 -5
BITMAP
00000000
00000000
00000000
00000000
00000000
00000000
00000000
00000000
007FFFF0
01FFFFF0
07E03FC0
07C03FC0
0FC03FC0
07C03FC0
03FFFFC0
003FFFC0
01F83FC0
0FE03FC0
3FC0FFF0
3F80FFF0
00000000
00000000
00000000
00000000
00000000
ENDCHAR

STARTCHAR afii61352
ENCODING 240
SWIDTH 1136 0
DWIDTH 30 0
BBX 30 25 0 -5
BITMAP
00000000
00000000
00000000
00000000
00000000
FE0FF800
FF0FF9E0
7F87F3F0
7F87F738
7EC7F738
7E67F738
7E67F738
7E37F3F0
7E1FF1E0
7E0FF000
7E0FF3F0
7E07F3F0
7E07F000
FF07F000
FF07F000
00000000
00000000
00000000
00000000
00000000
ENDCHAR

STARTCHAR afii10071
ENCODING 241
SWIDTH 1136 0
DWIDTH 30 0
BBX 30 25 0 -5
BITMAP
00000000
00000000
00000000
01F83F00
03FC7F80
01F83F00
00000000
00000000
03FFFF00
0FFFFFC0
3FF01FF0
3FE00FF0
7FE00FF0
7FFFFFF0
7FFFFFC0
7FE00000
3FE00000
3FF00000
0FFFFFF0
03FFFF80
00000000
00000000
00000000
00000000
00000000
ENDCHAR

STARTCHAR afii10099
ENCODING 242
SWIDTH 1136 0
DWIDTH 30 0
BBX 30 25 0 -5
BITMAP
00000000
00000000
00000000
00000000
1FFC0000
1FFC0000
03FC0000
3FFFF800
03FC0000
03FFFF00
03FF1FC0
03FE0FE0
03FC07E0
03FC07F0
03FC07F0
03FC07F0
03FC07F0
03FC07F0
1FFF07F0
1FFF07F0
000007F0
000007E0
00001FE0
007FFFC0
007FFF00
ENDCHAR

STARTCHAR afii10100
ENCODING 243
SWIDTH 1136 0
DWIDTH 30 0
BBX 30 25 0 -5
BITMAP
00000000
00000000
00000000
0003F000
001FC000
007E0000
00000000
00000000
7FFFFFE0
7FFFFFE0
03FC03E0
03FC03E0
03FC03E0
03FC03E0
03FC03E0
03FC0000
03FC0000
03FC0000
7FFFE000
7FFFE000
00000000
00000000
00000000
00000000
00000000
ENDCHAR

STARTCHAR afii10101
ENCODING 244
SWIDTH 1136 0
DWIDTH 30 0
BBX 30 25 0 -5
BITMAP
00000000
00000000
00000000
00000000
00000000
00000000
00000000
00000000
01FFF0F8
07FFFFF8
0FF81FF8
0FF00FF8
3FE001F8
3FFFFC00
3FFFFC00
3FF00000
3FF00000
0FFC03F0
07FFFFF0
01FFFF80
00000000
00000000
00000000
00000000
00000000
ENDCHAR

STARTCHAR afii10102
ENCODING 245
SWIDTH 1136 0
DWIDTH 30 0
BBX 30 25 0 -5
BITMAP
00000000
00000000
00000000
00000000
00000000
00000000
00000000
00000000
01FFE3C0
07FFFFC0
0FF80FC0
0FF80FC0
07FFE000
03FFFF00
003FFF80
00003FC0
0FE03FC0
0FFFFFC0
0FFFFF80
0E3FFE00
00000000
00000000
00000000
00000000
00000000
ENDCHAR

STARTCHAR afii10103
ENCODING 246
SWIDTH 1136 0
DWIDTH 30 0
BBX 30 25 0 -5
BITMAP
00000000
00000000
001FE000
001FE000
001FE000
001FE000
00000000
00000000
03FFE000
03FFE000
001FE000
001FE000
001FE000
001FE000
001FE000
001FE000
001FE000
001FE000
07FFFF80
07FFFF80
00000000
00000000
00000000
00000000
00000000
ENDCHAR

STARTCHAR afii10104
ENCODING 247
SWIDTH 1136 0
DWIDTH 30 0
BBX 30 25 0 -5
BITMAP
00000000
00000000
00000000
03F07E00
07F8FF00
03F07E00
00000000
00000000
03FFE000
03FFE000
001FE000
001FE000
001FE000
001FE000
001FE000
001FE000
001FE000
001FE000
07FFFF80
07FFFF80
00000000
00000000
00000000
00000000
00000000
ENDCHAR

STARTCHAR afii10105
ENCODING 248
SWIDTH 1136 0
DWIDTH 30 0
BBX 30 25 0 -5
BITMAP
00000000
00000000
0007FC00
0007FC00
0007FC00
0007FC00
00000000
00000000
01FFFC00
01FFFC00
0007FC00
0007FC00
0007FC00
0007FC00
0007FC00
0007FC00
0007FC00
0007FC00
0007FC00
0007FC00
0007FC00
0007FC00
000FF000
3FFFE000
3FFF8000
ENDCHAR

STARTCHAR afii10106
ENCODING 249
SWIDTH 1136 0
DWIDTH 30 0
BBX 30 25 0 -5
BITMAP
00000000
00000000
00000000
00000000
00000000
00000000
00000000
00000000
1FFFFF80
1FFFFF80
03FCFC00
03FCFC00
03FCFC00
03FCFFE0
03FCFFF0
03FCFC78
03FCFC3C
C3F8FC7C
E7F9FFF8
FFE7FFE0
00000000
00000000
00000000
00000000
00000000
ENDCHAR

STARTCHAR afii10107
ENCODING 250
SWIDTH 1136 0
DWIDTH 30 0
BBX 30 25 0 -5
BITMAP
00000000
00000000
00000000
00000000
00000000
00000000
00000000
00000000
FFDFFE00
FFDFFE00
7F87F800
7F87F800
7F87F800
7FFFFFF0
7FFFFFF8
7F87F878
7F87F83C
7F87F83C
FFDFFFF8
FFDFFFF0
00000000
00000000
00000000
00000000
00000000
ENDCHAR

STARTCHAR afii10108
ENCODING 251
SWIDTH 1136 0
DWIDTH 30 0
BBX 30 25 0 -5
BITMAP
00000000
00000000
00000000
7FF00000
7FF00000
0FF00000
FFFFF000
0FF00000
0FF3FF00
0FFFFF80
0FFC3FC0
0FF03FC0
0FF03FC0
0FF03FC0
0FF03FC0
0FF03FC0
0FF03FC0
0FF03FC0
7FFCFFF8
7FFCFFF8
00000000
00000000
00000000
00000000
00000000
ENDCHAR

STARTCHAR afii10109
ENCODING 252
SWIDTH 1136 0
DWIDTH 30 0
BBX 30 25 0 -5
BITMAP
00000000
00000000
00000000
0001F800
0007E000
003F0000
00000000
00000000
7FFC3FE0
7FFC3FF0
1FE0FDF0
1FE1F3E0
1FE7E000
1FFF0000
1FFFC000
1FE3F000
1FE0FC00
1FE07F00
7FFC1FF8
7FFC0FF8
00000000
00000000
00000000
00000000
00000000
ENDCHAR

STARTCHAR section
ENCODING 253
SWIDTH 1136 0
DWIDTH 30 0
BBX 30 25 0 -5
BITMAP
00000000
00000000
00000000
00000000
00000000
01FFFFC0
07FFFFC0
0FFFFFC0
3FF00FC0
7FFF0FC0
7E3FC000
7E0FF000
3FC3FE00
0FF07FC0
03FC1FF0
01FF83F8
001FE0F8
0007F1F8
3FC0FFF8
3FC03FC0
3FFFFFC0
3FFFFF00
3FFFFE00
00000000
00000000
ENDCHAR

STARTCHAR afii10110
ENCODING 254
SWIDTH 1136 0
DWIDTH 30 0
BBX 30 25 0 -5
BITMAP
00000000
00000000
00000000
00E00700
01F01F80
00F83F00
003FF800
00000000
FFF03FF8
FFF03FF8
0FF01F80
07F83F00
03FC3E00
01FF7E00
00FFFC00
003FF000
001FF000
000FE000
000FC000
1E078000
1E1F8000
1E7F0000
0FFC0000
00000000
00000000
ENDCHAR

STARTCHAR afii10193
ENCODING 255
SWIDTH 1136 0
DWIDTH 30 0
BBX 30 25 0 -5
BITMAP
00000000
00000000
00000000
00000000
00000000
00000000
00000000
00000000
7FF87FF8
7FF87FF8
1FE01FE0
1FE01FE0
1FE01FE0
1FE01FE0
1FE01FE0
1FE01FE0
1FE01FE0
1FE01FE0
7FFFFFF8
7FFFFFF8
000FC000
000FC000
000FC000
000FC000
00000000
ENDCHAR
ENDFONT
